<svg width="25" height="24" viewBox="0 0 25 24" fill="none" xmlns="http://www.w3.org/2000/svg">
<path d="M23.3103 7.6275L16.8715 1.18873C16.7322 1.04941 16.5669 0.938888 16.3848 0.863483C16.2028 0.788078 16.0077 0.749268 15.8107 0.749268C15.6137 0.749268 15.4186 0.788078 15.2367 0.863483C15.0546 0.938888 14.8893 1.04941 14.7499 1.18873L12.0837 3.85498L6.64621 5.89498C6.39913 5.98691 6.18065 6.14234 6.01277 6.34561C5.84489 6.54887 5.73355 6.79279 5.68996 7.05279L3.74277 18.734C3.72972 18.8124 3.74187 18.8928 3.77746 18.9638C3.81306 19.0348 3.87027 19.0926 3.94084 19.129C4.01142 19.1654 4.09173 19.1784 4.17019 19.1663C4.24866 19.1541 4.32123 19.1173 4.37746 19.0613L9.72117 13.7175C9.5519 13.3652 9.47787 12.9748 9.50653 12.585C9.5414 12.1055 9.7289 11.6497 10.0416 11.2846C10.3544 10.9194 10.7759 10.664 11.2443 10.5558C11.7128 10.4476 12.2036 10.4924 12.6447 10.6835C13.0859 10.8745 13.4543 11.2018 13.6959 11.6175C13.9375 12.0331 14.0396 12.5153 13.9872 12.9932C13.9348 13.4711 13.7307 13.9197 13.4049 14.2732C13.079 14.6267 12.6484 14.8665 12.1764 14.9575C11.7042 15.0485 11.2154 14.9858 10.7815 14.7787L5.43777 20.1225C5.3817 20.1787 5.34493 20.2513 5.33275 20.3297C5.32057 20.4082 5.33361 20.4885 5.37 20.5591C5.40638 20.6297 5.46423 20.6869 5.53521 20.7225C5.60619 20.758 5.68663 20.7702 5.76496 20.7572L17.4471 18.81C17.7067 18.7667 17.9504 18.6559 18.1536 18.4888C18.3568 18.3216 18.5124 18.1039 18.6049 17.8575L20.6459 12.4134L23.3103 9.75C23.4496 9.61065 23.5601 9.44528 23.6355 9.26332C23.7109 9.0813 23.7497 8.88622 23.7497 8.6892C23.7497 8.49218 23.7109 8.2971 23.6355 8.11508C23.5601 7.93305 23.4496 7.76767 23.3103 7.6284V7.6275ZM19.9999 10.9388L13.5612 4.49998L15.8112 2.24998L22.2499 8.68875L19.9999 10.9388Z" fill="#3BFFDE"/>
</svg>
