<svg width="25" height="24" viewBox="0 0 25 24" fill="none" xmlns="http://www.w3.org/2000/svg">
<path d="M21.23 12C21.23 12.1989 21.151 12.3897 21.0103 12.5303C20.8697 12.671 20.6789 12.75 20.48 12.75H12.98V20.25C12.98 20.4489 12.901 20.6397 12.7603 20.7803C12.6197 20.921 12.4289 21 12.23 21C12.0311 21 11.8403 20.921 11.6997 20.7803C11.559 20.6397 11.48 20.4489 11.48 20.25V12.75H3.97998C3.78107 12.75 3.5903 12.671 3.44965 12.5303C3.309 12.3897 3.22998 12.1989 3.22998 12C3.22998 11.8011 3.309 11.6103 3.44965 11.4697C3.5903 11.329 3.78107 11.25 3.97998 11.25H11.48V3.75C11.48 3.55109 11.559 3.36032 11.6997 3.21967C11.8403 3.07902 12.0311 3 12.23 3C12.4289 3 12.6197 3.07902 12.7603 3.21967C12.901 3.36032 12.98 3.55109 12.98 3.75V11.25H20.48C20.6789 11.25 20.8697 11.329 21.0103 11.4697C21.151 11.6103 21.23 11.8011 21.23 12Z" fill="#101213"/>
</svg>
